<svg xmlns="http://www.w3.org/2000/svg" viewBox="0 0 256 256" width="256" height="256">
  <defs>
    <linearGradient id="bv-grad" x1="0%" y1="0%" x2="100%" y2="0%">
      <stop offset="0%" stop-color="#c7f284"/>
      <stop offset="100%" stop-color="#ff69b4"/>
    </linearGradient>
  </defs>
  <rect width="256" height="256" rx="48" fill="#101e2c"/>
  <path d="M137.68 157.50L78.58 157.50L78.58 52.50L134.68 52.50Q156.43 52.50 166.78 60.23Q177.13 67.95 177.13 79.95L177.13 79.95Q177.13 87.15 173.45 93.08Q169.78 99 162.57 102.60L162.57 102.60Q171.88 106.05 176.98 112.65Q182.07 119.25 182.07 128.55L182.07 128.55Q182.07 142.20 170.75 149.85Q159.43 157.50 137.68 157.50L137.68 157.50ZM113.38 116.25L113.38 132.75L134.68 132.75Q146.38 132.75 146.38 124.50L146.38 124.50Q146.38 116.25 134.68 116.25L134.68 116.25L113.38 116.25ZM113.38 77.25L113.38 92.85L129.88 92.85Q141.43 92.85 141.43 85.05L141.43 85.05Q141.43 77.25 129.88 77.25L129.88 77.25L113.38 77.25Z" fill="#e8e6e3"/>
  <polyline points="66.6,193.5 83.3,193.5 93.3,193.5 105.3,169.5 115.3,217.5 125.3,181.5 137.3,193.5 194.1,193.5" stroke="url(#bv-grad)" stroke-width="12" fill="none" stroke-linecap="round" stroke-linejoin="round"/>
</svg>