<svg xmlns="http://www.w3.org/2000/svg" width="449" height="115" viewBox="-7.5 -70.1 449.5 115.3">
  <defs>
    <linearGradient id="bv-grad" x1="0%" y1="0%" x2="100%" y2="0%">
      <stop offset="0%" stop-color="#c7f284"/>
      <stop offset="100%" stop-color="#ff69b4"/>
    </linearGradient>
  </defs>
  <path d="M25.20-9.72L2.88-9.72L2.88-19.80L29.16-19.80L29.16-21.96L2.52-21.96L2.52-30.96L29.16-30.96L29.16-33.12L8.28-33.12L8.28-41.40L29.16-41.40L29.16-43.56L4.68-43.56L4.68-54.00L17.28-54.00Q16.20-56.16 14.76-58.68L14.76-58.68L27.36-60.12Q28.94-57.38 30.67-54.00L30.67-54.00L41.83-54.00Q43.99-58.46 44.64-60.12L44.64-60.12L57.60-59.04Q56.81-57.02 55.30-54.00L55.30-54.00L67.32-54.00L67.32-43.56L42.84-43.56L42.84-41.40L63.72-41.40L63.72-33.12L42.84-33.12L42.84-30.96L69.48-30.96L69.48-21.96L42.84-21.96L42.84-19.80L69.12-19.80L69.12-9.72L46.73-9.72Q52.78-5.83 69.48-3.96L69.48-3.96L64.80 7.20Q55.87 5.83 48.56 2.66Q41.26-0.50 36.72-4.68L36.72-4.68Q31.90-0.50 24.26 2.66Q16.63 5.83 7.20 7.20L7.20 7.20L2.52-3.96Q19.08-5.83 25.20-9.72L25.20-9.72ZM99.36-27.00L99.36-27.00Q101.23-27.00 101.56-27.32Q101.88-27.65 101.88-29.52L101.88-29.52L101.88-59.04L115.56-59.04L115.56-30.24Q115.56-26.50 115.45-24.44Q115.34-22.39 114.77-20.52Q114.19-18.65 113.51-17.93Q112.82-17.21 111.02-16.63Q109.22-16.06 107.32-15.95Q105.41-15.84 101.88-15.84L101.88-15.84Q98.78-15.84 92.16-16.20L92.16-16.20L91.44-27.36Q97.06-27.00 99.36-27.00ZM83.88-52.56L96.12-49.68Q92.16-34.27 84.60-19.80L84.60-19.80L73.08-25.20Q80.14-39.02 83.88-52.56L83.88-52.56ZM118.80-49.68L118.80-49.68L130.68-54.00Q137.38-40.68 142.92-25.20L142.92-25.20L131.04-21.24Q125.57-36.00 118.80-49.68ZM125.64-24.84L125.64-24.84L133.56-16.92Q125.21-6.34 112.57-0.36Q99.94 5.62 82.08 7.20L82.08 7.20L77.76-4.68Q95.04-5.83 106.20-10.62Q117.36-15.41 125.64-24.84ZM182.52-20.74L182.52-20.74Q186.70-27.22 189.50-37.80L189.50-37.80L176.26-37.80Q173.74-31.97 170.14-26.50L170.14-26.50Q176.90-23.69 182.52-20.74ZM168.48-59.76L168.48-59.76L182.16-59.04Q181.37-53.50 180.14-48.96L180.14-48.96L213.12-48.96L213.12-37.80L203.11-37.80Q200.02-23.18 193.82-14.04L193.82-14.04Q202.46-8.50 211.32-1.44L211.32-1.44L202.68 7.20Q193.03-0.50 185.69-5.18L185.69-5.18Q174.24 3.96 151.20 6.48L151.20 6.48L149.04-4.32Q165.89-6.41 174.10-11.95L174.10-11.95Q168.05-15.12 162.86-17.21L162.86-17.21Q161.78-15.98 159.48-13.68L159.48-13.68L149.40-20.88Q156.96-28.66 161.42-37.80L161.42-37.80L146.88-37.80L146.88-48.96L165.74-48.96Q167.40-54.50 168.48-59.76Z" fill="#e8e6e3"/>
  <path d="M251.77 0L235.06 0L213.75-50.40L232.04-50.40L244.06-20.95L256.38-50.40L273.08-50.40L251.77 0ZM291.58 0L275.31 0L275.31-39.38L291.58-39.38L291.58 0ZM283.45-42.55L283.45-42.55Q278.98-42.55 276.32-44.93Q273.66-47.30 273.66-50.83L273.66-50.83Q273.66-54.36 276.32-56.74Q278.98-59.11 283.45-59.11L283.45-59.11Q287.91-59.11 290.58-56.88Q293.24-54.65 293.24-51.12L293.24-51.12Q293.24-47.38 290.58-44.96Q287.91-42.55 283.45-42.55ZM325.06 0.72L325.06 0.72Q317.79 0.72 314.26-3.24L314.26-3.24L314.26 0L298.78 0L298.78-53.42L315.06-53.42L315.06-36.72Q318.66-40.10 325.06-40.10L325.06-40.10Q330.25-40.10 334.57-37.66Q338.89-35.21 341.48-30.64Q344.07-26.06 344.07-19.73L344.07-19.73Q344.07-13.39 341.48-8.82Q338.89-4.25 334.57-1.76Q330.25 0.72 325.06 0.72ZM321.18-11.95L321.18-11.95Q323.91-11.95 325.75-13.93Q327.58-15.91 327.58-19.73L327.58-19.73Q327.58-23.54 325.75-25.49Q323.91-27.43 321.18-27.43L321.18-27.43Q318.51-27.43 316.64-25.49Q314.77-23.54 314.77-19.73L314.77-19.73Q314.77-15.91 316.64-13.93Q318.51-11.95 321.18-11.95ZM370.93 0.72L370.93 0.72Q363.73 0.72 358.36-1.94Q353.00-4.61 350.05-9.25Q347.10-13.90 347.10-19.73L347.10-19.73Q347.10-25.70 350.01-30.31Q352.93-34.92 358.00-37.51Q363.08-40.10 369.42-40.10L369.42-40.10Q375.25-40.10 380.18-37.80Q385.11-35.50 388.10-30.96Q391.09-26.42 391.09-19.73L391.09-19.73Q391.09-18.86 391.02-17.82Q390.94-16.78 390.87-15.91L390.87-15.91L363.51-15.91Q365.24-11.30 371.43-11.30L371.43-11.30Q374.17-11.30 375.93-12.02Q377.70-12.74 379.64-14.18L379.64-14.18L388.14-5.62Q385.26-2.52 381.04-0.90Q376.83 0.72 370.93 0.72ZM363.22-23.76L363.22-23.76L375.90-23.76Q375.39-26.21 373.70-27.61Q372.01-29.02 369.56-29.02L369.56-29.02Q367.04-29.02 365.38-27.61Q363.73-26.21 363.22-23.76ZM411.61 0.72L411.61 0.72Q406.57 0.72 401.67-0.36Q396.78-1.44 393.75-3.17L393.75-3.17L398.22-13.90Q401.02-12.24 404.73-11.30Q408.44-10.37 411.97-10.37L411.97-10.37Q414.92-10.37 415.96-10.87Q417.01-11.38 417.01-12.24L417.01-12.24Q417.01-13.25 415.32-13.61Q413.62-13.97 411.03-14.26L411.03-14.26Q408.51-14.54 405.63-15.08Q402.75-15.62 400.16-16.81Q397.57-18.00 395.95-20.34Q394.33-22.68 394.33-26.64L394.33-26.64Q394.33-30.38 396.60-33.41Q398.86-36.43 403.36-38.27Q407.86-40.10 414.49-40.10L414.49-40.10Q418.81-40.10 423.13-39.31Q427.45-38.52 430.54-36.86L430.54-36.86L426.08-26.14Q423.06-27.79 420.14-28.40Q417.22-29.02 414.70-29.02L414.70-29.02Q411.61-29.02 410.49-28.44Q409.38-27.86 409.38-27.14L409.38-27.14Q409.38-26.14 411.10-25.74Q412.83-25.34 415.35-25.06L415.35-25.06Q417.87-24.77 420.75-24.23Q423.63-23.69 426.19-22.43Q428.74-21.17 430.36-18.83Q431.98-16.49 431.98-12.60L431.98-12.60Q431.98-9.07 429.75-6.01Q427.52-2.95 422.98-1.12Q418.45 0.72 411.61 0.72Z" fill="#e8e6e3"/>
  <polyline points="2.5,25.2 142.6,25.2 150.6,25.2 158.6,15.2 166.6,35.2 174.6,20.2 182.6,25.2 432.0,25.2" stroke="url(#bv-grad)" stroke-width="7" fill="none" stroke-linecap="round" stroke-linejoin="round"/>
</svg>